<?xml version="1.0" encoding="UTF-8"?>
<svg id="Layer_2" data-name="Layer 2" xmlns="http://www.w3.org/2000/svg" viewBox="0 0 567 800">
  <defs>
    <style>
      .cls-1 {
        fill: none;
        stroke: #000;
        stroke-linecap: round;
        stroke-linejoin: round;
        stroke-width: 2.5px;
      }

      .cls-2 {
        fill: #fff0e6;
      }

      .cls-3 {
        fill: #ff8a80;
      }

      .cls-4 {
        fill: #8ccead;
      }

      .cls-5 {
        fill: #fdd835;
      }

      .cls-6 {
        fill: #d3a397;
      }

      .cls-7 {
        fill: #c2907f;
      }

      .cls-8 {
        fill: #bbdefb;
      }

      .cls-9 {
        fill: #fff;
      }

      .cls-10 {
        fill: #f93;
      }

      .cls-11 {
        fill: #e5c59e;
      }

      .cls-12 {
        fill: #282828;
      }

      .cls-13 {
        fill: #ad7566;
      }

      .cls-14 {
        fill: #ff8039;
      }

      .cls-15 {
        fill: #ededed;
      }
    </style>
  </defs>
  <g id="Layer_1-2" data-name="Layer 1">
    <g>
      <path class="cls-12" d="M476.06,451.41s4.4-55.07,7.93-69.19,4.05-31.31,4.05-31.31l23.7,11.47s22.02,26.9,4.4,41.45c0,0,11.89-.88,14.98,10.58s-7.49,15.45-7.49,15.45c0,0,11.01,2.63,4.85,14.98s-11.89,10.58-11.89,10.58c0,0,12.33,5.73,3.08,18.96-9.25,13.23-31.63,6.61-31.63,6.61l-11.97-29.6Z"/>
      <path class="cls-13" d="M77.73,756.95c0-1.32,1.98-34.4,1.98-34.4l221.34,4.92,7.27,22.86-.32,10.58-230.26-3.97Z"/>
      <rect class="cls-13" x="83.33" y="396.81" width="4.98" height="47.06" transform="translate(-339.99 472.68) rotate(-85.47)"/>
      <rect class="cls-13" x="93.99" y="353.56" width="4.98" height="45.72" transform="translate(-286.41 442.66) rotate(-85.44)"/>
      <polygon class="cls-13" points="8.83 799.82 3.91 799.08 62.4 422.2 67.32 422.95 8.83 799.82"/>
      <path class="cls-13" d="M54.96,799.82l-4.92-.75,73.9-478.88c2-1.06,3.63-.76,4.92.75l-73.9,478.88Z"/>
      <rect class="cls-13" x="31.7" y="748.5" width="4.98" height="45.72" transform="translate(-737.44 744.1) rotate(-85.44)"/>
      <rect class="cls-13" x="37.09" y="704.62" width="4.98" height="45.72" transform="translate(-688.74 709.07) rotate(-85.44)"/>
      <rect class="cls-13" x="45.43" y="660.73" width="4.98" height="45.72" transform="translate(-637.32 676.99) rotate(-85.44)"/>
      <rect class="cls-13" x="51.37" y="616.85" width="4.98" height="45.72" transform="translate(-588.11 642.52) rotate(-85.44)"/>
      <rect class="cls-13" x="59.88" y="572.97" width="4.98" height="45.72" transform="translate(-536.54 610.61) rotate(-85.44)"/>
      <rect class="cls-13" x="63.57" y="529.09" width="4.98" height="45.72" transform="translate(-489.39 573.9) rotate(-85.44)"/>
      <rect class="cls-13" x="70.79" y="485.2" width="4.98" height="45.72" transform="translate(-439 540.71) rotate(-85.44)"/>
      <rect class="cls-13" x="76.76" y="441.32" width="4.98" height="45.72" transform="translate(-389.76 506.26) rotate(-85.44)"/>
      <path class="cls-7" d="M22.45,299.76s-1.54-20.51,17.84-31.97,37.88-21.94,64.09-24.25c17.75-1.57,21.14,11.02,22.9,16.1,1.76,5.07,7.71,18.52,3.96,26.9,0,0,5.07-9.48,11.01-6.39,5.95,3.09,5.29,9.48,0,15.88-5.29,6.39-23.79,27.34-27.53,36.16-3.74,8.82-3.96,23.23-5.95,36.53s.88,39.32-24.33,41.53c-25.22,2.2-46.7,9.55-60.46-15.5-14.98-27.27-1.1-40.88-1.54-94.96Z"/>
      <path class="cls-7" d="M21.35,337.1s-13.21,17.93-18.65,23.08c-5.43,5.14-2.28,12.94,6.02,10.44,8.3-2.5,16.74-12.79,16.74-12.79l-4.11-20.73Z"/>
      <path class="cls-7" d="M53.94,410.74s5.72,17.91,14.98,17.93c7.75.02,7.19-3.82,6.46-9.7-.73-5.88-1.47-12.05-1.47-12.05l-19.97,3.82Z"/>
      <path class="cls-15" d="M344.92,546.92c18.44-2.29,35.87.66,52.3,8.69,1.66.81,2.51,2.69,2.01,4.47l-13.06,46.32c-.96,3.39-3.83,5.88-7.32,6.35-13.99,1.9-26.16-.22-36.5-6.41-2.17-1.3-3.43-3.7-3.3-6.22l2.51-49.6c.09-1.86,1.51-3.36,3.36-3.59Z"/>
      <path class="cls-7" d="M83.16,406.92s-1.33,15.78,6.17,20.14c2.17,1.26,4.98,1.68,7.24.4,3.15-1.78,3.19-5.59,3.64-8.76s1.14-6.3,1.83-9.42c1.37-6.23,3.05-12.42,4.14-18.71,1.17-6.76-8.47-4.8-8.47-4.8l-10.72,10.58-3.82,10.58Z"/>
      <path class="cls-7" d="M45.53,268.79l-2.91-6.33c-2-4.35-7.65-5.81-11.64-3.01l-2.15,1.51c-4.17,2.93-4.55,8.8-.78,12.21l3.89,3.52,13.59-7.9Z"/>
      <path class="cls-7" d="M60.61,261.19l-1.3-6.11c-.9-4.2-5.55-6.59-9.59-4.92l-2.17.9c-4.22,1.75-5.7,6.81-3.08,10.53l2.72,3.84,13.43-4.24Z"/>
      <rect class="cls-6" x="247.66" y="707.5" width="180.78" height="3.98" transform="translate(-383 1022.12) rotate(-87.96)"/>
      <rect class="cls-6" x="364.01" y="619.63" width="3.98" height="180.39" transform="translate(-38.06 20.95) rotate(-3.12)"/>
      <rect class="cls-6" x="534.29" y="638.76" width="3.98" height="161.16" transform="translate(-56.08 45.43) rotate(-4.61)"/>
      <rect class="cls-6" x="350.5" y="750.87" width="3.99" height="33.01" transform="translate(-454.13 1017.31) rotate(-82.54)"/>
      <rect class="cls-6" x="432.22" y="717.44" width="160.8" height="3.98" transform="translate(-232.81 1193.45) rotate(-86.98)"/>
      <path class="cls-13" d="M310.57,602.13c24.05,2.83,210.99,24.82,241.46,28.91,1.4.19,2.44,1.38,2.44,2.79v6.21c0,1.84-1.6,3.27-3.43,3.06-27.67-3.22-214.05-24.84-240.17-27.15-1.61-.14-2.84-1.49-2.84-3.11v-8.45c0-1.37,1.19-2.43,2.55-2.27Z"/>
      <path class="cls-5" d="M426.07,593.01s-1.47,4.53-2.71,8.04c-.73,2.06-2.52,3.56-4.67,3.91-10.07,1.64-29.39,1.28-29.39,1.28,0,0,9.84,6.03,6.02,14.26,0,0,10.94-5.88,17.99,4.92,2.54-1.84,5.21-3.52,7.93-5.07,2.92-1.66,6.36-2.4,9.06-4.45,2.44-1.86,3.31-4.8,3.92-7.71.94-4.42,1.14-9.13.89-13.64l-9.03-1.54Z"/>
      <path class="cls-12" d="M435.2,469.98s-17.28-9.26-45.91-1.76c-28.63,7.5-62.99-8.38-70.48-13.67s-17.18-4.64-16.3,7.82,18.06,19.52,18.06,19.52c0,0-15.86,3.97-12.33,15.88,3.52,11.91,20.7,4.85,20.7,4.85,0,0-11.89,11.91,1.76,18.52,13.65,6.61,27.94-9.7,27.94-9.7,0,0-3.23,16.76,10.18,18.96,13.41,2.2,14.73-14.99,14.73-14.99,0,0-1.54,15.38,14.21,15.19,15.74-.2,9.58-21.36,9.58-21.36,0,0-.88,11.47,15.42,10.14,16.3-1.32,12.43-49.39,12.43-49.39Z"/>
      <path class="cls-5" d="M472.32,593.01s-7.38,21.12,1.32,27.78c3.74,2.87,8.59,10.58,8.59,10.58,3.42-6.23,9.24-7.95,17.62-4.85,0,0-1.54-9.48,6.83-9.7,0,0-17.18-6.27-21.58-9.7s-3.08-18.3-3.08-18.3l-9.69,4.19Z"/>
      <path class="cls-9" d="M419.68,391.04s-12.11,4.69-9.25,19.43,20.7,19.15,22.24,34.15c1.54,14.99-10.79,40.35-13.21,64.82-2.42,24.47-11.45,55.34-19.38,57.99,0,0,2.42,16.1,22.9,25.58s55.5,13.01,73.56-18.96c18.06-31.97,12.55-82.91,3.08-99.66-9.47-16.76-37.3-31.53-47.35-58.21-10.13-26.88-20.92-29.55-32.59-25.14Z"/>
      <path class="cls-5" d="M431.27,413.36c-1.84.02-3.67-.47-5.19-1.51-2-1.37-5.53-2.48-10.58.58-8.37,5.07-30.83,13.67-46.25,18.3-11.76,3.53-11.09,12.45-10.11,16.49.23.94,1.36,1.31,2.09.68,1.68-1.45,4.55-3.57,7.14-3.71,3.96-.22,12.33,3.97,27.53-1.1,15.2-5.07,33.54-16.66,38.54-20.06,2.89-1.97,4.66-9.75-3.17-9.65Z"/>
      <path class="cls-2" d="M139.89,237.8l1.74-18.94s6.01.35,10.09,1.37,10.52,1.82,12.56,2.33,3.93,1.16,3.93,1.16l-5.6,18.2-22.71-4.12Z"/>
      <line class="cls-11" x1="138.24" y1="239.12" x2="163.27" y2="244.24"/>
      <rect class="cls-11" x="146.6" y="228.9" width="8.31" height="25.55" transform="translate(-116.25 340.9) rotate(-78.43)"/>
      <line class="cls-11" x1="150.75" y1="241.68" x2="137.16" y2="308.21"/>
      <rect class="cls-11" x="110" y="270.8" width="67.91" height="8.3" transform="translate(-154.27 360.84) rotate(-78.43)"/>
      <path class="cls-1" d="M147.7,245.16s2.76.62,4.34,1"/>
      <path class="cls-1" d="M144.63,219.11s-.94,11.69-1.11,12.9"/>
      <path class="cls-1" d="M149.35,219.74s-1.55,12.27-1.65,13.21"/>
      <path class="cls-1" d="M153.66,220.67s-1.37,11.68-1.62,13.05"/>
      <path class="cls-1" d="M158.53,221.55s-2.18,12.5-2.35,13.27"/>
      <path class="cls-1" d="M163.27,222.53s-2.79,12.35-3.01,13.23"/>
      <path class="cls-15" d="M140.71,342.76c-14.6,0-26.43,2.81-26.43,6.28l1.89,37.71c.2,4.08,2.87,7.63,6.73,8.94,7.65,2.59,21.18,5.43,35.37.1,3.65-1.37,6.14-4.78,6.39-8.68l2.48-38.07c0-3.47-11.83-6.28-26.43-6.28Z"/>
      <path class="cls-3" d="M165.7,348.91c0-2.55-11.19-4.61-24.99-4.61s-24.99,2.07-24.99,4.61c0,1.22,2.56,2.32,6.74,3.15.48,1.56.6,3.17.34,4.77-.18,1.11-.53,2.27.11,3.35.48.81,1.64,1.46,2.85,1.46,1.4,0,2.29-.88,2.48-1.84.22-1.11.08-2.27.08-3.39,0-1.1-.08-2.22.02-3.32,0-.06.01-.12.02-.18,1.43.15,2.95.28,4.54.37.05.29.07.57.08.85.05,2.35-.51,4.69-.64,7.04-.07,1.22-.02,2.44.21,3.64.19.99.49,1.98,1.34,2.77.8.75,2.11,1.05,3.28.6,1.13-.44,1.67-1.44,1.97-2.31.79-2.27.69-4.64.49-6.96-.1-1.16-.25-2.32-.29-3.48-.02-.64,0-1.31.24-1.93.37,0,.75,0,1.12,0,.21,0,.41,0,.62,0,.35,1.01.06,2.07.81,3.01.68.86,1.9,1.41,3.23,1.48,1.38.07,2.74-.45,3.54-1.28.58-.6.89-1.65,2.08-1.67.6,0,1.2.16,1.75.33.74.23,1.46.47,2.27.55,1.47.14,2.65-.43,3.49-1.28.75-.77,1.08-1.71,1.78-2.49.23-.26.52-.45.84-.6,2.89-.75,4.59-1.67,4.59-2.66Z"/>
      <path class="cls-1" d="M122.46,352.06s-8.17-23.03,1.74-24.74c6.8-1.17,10.8,10.03,12.1,14.41"/>
      <ellipse class="cls-15" cx="226.31" cy="679.45" rx="25.25" ry="7.64"/>
      <path class="cls-15" d="M201.06,679.45l3.36,48.9c.1,1.53,1,2.89,2.37,3.58,12.22,6.21,24.26,6.73,36.1.99,2.46-1.19,4.11-3.6,4.36-6.32l4.32-47.15h-50.51Z"/>
      <path class="cls-1" d="M201.06,679.45s-7.34,16.32-4.7,27.93c2.64,11.61,14.68,14.7,27.02,8.53,12.33-6.17,28.19-36.45,28.19-36.45"/>
      <path class="cls-4" d="M249.21,679.06c0-3.09-10.25-5.59-22.9-5.59s-22.9,2.5-22.9,5.59c0,1.54,2.56,2.94,6.69,3.95.27.59.45,1.23.53,1.86.24,1.82-.27,3.69.57,5.41.33.69.9,1.33,1.6,1.66.8.39,1.9.46,2.59-.22.34-.34.48-.8.6-1.25.13-.49.24-.99.34-1.49.18-.93.24-1.88.42-2.8.16-.82.52-1.44,1.31-1.78.09-.04.19-.07.28-.11,2.44.22,5.08.34,7.83.35.07.13.14.27.19.42.35,1.02.5,2.1,1.28,2.9,1.37,1.4,3.79,1.4,5.14,0,.33-.34.6-.75.99-1.02.37-.26.81-.44,1.26-.51.9-.13,1.79.22,2.41.88.73.77.82,1.84.87,2.85.07,1.3.08,2.6.06,3.89-.03,1.27-.1,2.54-.21,3.81-.11,1.24-.38,2.5-.34,3.75.04,1.11.39,2.25,1.24,3.01.83.74,1.94.99,2.98.57,2.03-.82,3.03-3.26,3.41-5.27.43-2.27.24-4.56.1-6.85-.08-1.36-.14-2.74,0-4.1.12-1.22.47-2.37.99-3.48.69-1.49,1.62-3.15,1.75-4.83.61-.51.95-1.04.95-1.59Z"/>
      <path class="cls-8" d="M399.96,556.29c-.9-1.21-2.34-1.79-3.67-2.38-3.22-1.42-6.52-2.66-9.88-3.71-6.85-2.14-13.91-3.4-21.06-4.01-3.7-.32-7.4-.48-11.11-.62-1.75-.06-3.5-.16-5.24-.15-1.58,0-3.21.12-4.7.66-.87.31-2.01.86-2.52,1.67h0c-1.06.91-1.29,2.49-.46,3.64,1.01,1.4,2.69,1.72,4.32,1.57,1.35-.13,3.18-.68,4.39.22,1.11.83,1.22,2.62,1.29,3.88.11,1.79-.08,3.57-.53,5.3-.87,3.33-2.43,6.57-1.84,10.1.28,1.69,1.18,3.12,2.32,4.37.54.59,1.13,1.14,1.9,1.4.7.24,1.51.2,2.21-.06,1.55-.58,2.48-1.94,2.99-3.47.53-1.63.73-3.4.9-5.1.36-3.52.34-7.09.91-10.59.14-.85.3-1.7.53-2.53.19-.68.43-1.38.88-1.92.67-.8,2.09-1.25,2.65-.1.25.52.28,1.14.29,1.71,0,.83-.05,1.66-.02,2.48.06,1.64.34,3.46,1.54,4.69,1.06,1.09,2.82,1.55,4.15.67,1.13-.74,1.65-2.07,1.83-3.36.19-1.36-.05-2.78.33-4.11.36-1.26,1.41-1.82,2.67-1.75.49.03.96.15,1.41.33.04.08.07.16.11.23.26.66.21,1.24-.04,1.9-.51,1.3-1.39,2.53-1.03,4,.31,1.27,1.52,2.21,2.84,1.81,1.29-.39,1.95-1.78,2.3-2.97.21-.71.32-1.44.35-2.17.79.42,1.62.75,2.53.86.8.1,1.61,0,2.36-.3.71-.28,1.37-.67,2.05-1,.59-.28,1.25-.44,1.9-.3.75.17,1.42.57,2.04,1.01,1.28.91,2.38,2.04,3.9,2.55,1.32.44,2.85.19,3.89-.76,1.07-.97,1.15-2.57.31-3.71Z"/>
      <path class="cls-1" d="M341.31,551.38s18.55,52.24,48.27,42.94c13.37-4.18,10.07-34.33,10.07-34.33"/>
      <polygon class="cls-11" points="521.05 320.09 479.78 320 478.14 301.27 522.77 301.36 521.05 320.09"/>
      <path class="cls-2" d="M479.48,301.27l-1.31-16.39s6.55-1.03,11.61.02,14.73-.27,17.11.18,7.14-.28,9.22.02c2.08.3,6.7.16,6.7.16l-1.82,16.08"/>
      <rect class="cls-11" x="464.78" y="345.75" width="71.15" height="8.41" transform="translate(149.37 849.59) rotate(-89.88)"/>
      <line class="cls-1" x1="484.21" y1="286.26" x2="484.12" y2="298.88"/>
      <line class="cls-1" x1="490.7" y1="286.55" x2="490.61" y2="299.17"/>
      <line class="cls-1" x1="497.35" y1="286.78" x2="497.26" y2="299.41"/>
      <line class="cls-1" x1="503.5" y1="287.26" x2="503.41" y2="299.89"/>
      <path class="cls-12" d="M513.06,404.71s17.84-6.39,15.64-23.37c-2.2-16.98-17.62-44.98-35.68-44.54-18.06.44-.94,36.09,13.65,29.55,0,0-16.96,12.79,6.39,38.37Z"/>
      <line class="cls-1" x1="510.44" y1="287.21" x2="510.35" y2="299.83"/>
      <line class="cls-1" x1="517.18" y1="287.46" x2="517.09" y2="300.08"/>
      <line class="cls-1" x1="497.87" y1="319.93" x2="502.93" y2="319.93"/>
      <polygon class="cls-6" points="84.67 799.89 80.69 799.75 82.79 757 86.77 757.14 84.67 799.89"/>
      <polygon class="cls-6" points="99.08 799.88 97.32 757.38 101.3 757.26 103.06 799.76 99.08 799.88"/>
      <rect class="cls-6" x="283.85" y="760.54" width="3.98" height="39.28"/>
      <polygon class="cls-6" points="305.86 799.82 301.88 799.82 301.47 760.84 305.46 760.84 305.86 799.82"/>
      <path class="cls-10" d="M139.28,744.78c-.66,0-1.3-.33-1.67-.93-.56-.91-.28-2.11.63-2.68.18-.11,4.49-2.74,8.82-.64.97.47,1.38,1.64.91,2.61-.47.97-1.64,1.38-2.61.91-2.38-1.15-5.04.43-5.07.45-.32.19-.67.28-1.01.28Z"/>
      <path class="cls-10" d="M163.76,703.4s3.23-.89,4.99,1.98.29,6.93-2.5,7.33c-2.79.4-2.5-9.31-2.5-9.31Z"/>
      <path class="cls-5" d="M162.88,699.23c-6.35-6.39-16.24-6.16-22.27-4.88h0s-4.45.94-9.15,0c-4.7-.94-7.34.68-6.17,4.06,1.09,3.14,4.45,3.74,4.93,3.81-.47-.06-3.62-.37-3.83,2.21-.23,2.79,2.42,2.94,2.42,2.94,0,0-2.78,0-2.42,2.2.17,1.04.88,1.84,2,2.38-.27,1.15-.49,2.27-.68,3.35-2.47.89-5.05,2.64-6.39,6.04-2.65,6.7.13,8.94,6.55,8.03,2.96,10.55,13.57,14.99,27.51,12.99,19.38-2.79,18.28-32.27,7.49-43.13Z"/>
      <path class="cls-10" d="M157.9,744.78c-.66,0-1.3-.33-1.67-.93-.56-.91-.28-2.11.63-2.68.18-.11,4.49-2.74,8.82-.64.97.47,1.38,1.64.91,2.61-.47.97-1.64,1.38-2.61.91-2.38-1.15-5.04.43-5.07.45-.32.19-.67.28-1.01.28Z"/>
      <path class="cls-1" d="M367.01,443.28s8.15-7.17,18.5-8.27,30.91-.01,44.38-18.23"/>
      <circle cx="433.51" cy="406.8" r="2.09"/>
      <line class="cls-1" x1="400.53" y1="611.74" x2="409.07" y2="610.1"/>
      <line class="cls-1" x1="412.25" y1="618.68" x2="417.11" y2="615.15"/>
      <line class="cls-1" x1="480.43" y1="616.92" x2="484.5" y2="622.76"/>
      <line class="cls-1" x1="488.04" y1="615.15" x2="494.74" y2="618.68"/>
      <path class="cls-8" d="M526.75,284.71c-.41-2.16-2.05-2.75-3.72-2.43-.15-.21-.31-.4-.49-.58-.44-.43-.95-.68-1.48-.79-1.84-.61-3.92.07-5.09,1.58-.1-.17-.21-.43-.45-.74-.89-1.13-2.26-1.36-3.56-.82-1.63.67-2.01,2.15-3.27,3.16-.88.7-.97-.21-1.19-.98-.2-.69-.34-1.41-.65-2.06-.67-1.43-2.02-2.55-3.63-2.7-1.47-.14-2.81.57-3.56,1.84-.44.75-.58,2.08-1,3.03-.55-.82-.93-1.81-1.63-2.49-.96-.93-2.35-1.49-3.67-1.09-1.33.41-1.54,1.44-2.4,2.33-.42.43-.24.46-.78.12-.27-.17-.49-.57-.68-.82-.46-.59-.9-1.16-1.52-1.6-1.03-.73-2.37-1.04-3.52-.34-.46.28-.82.73-1.09,1.19-.09.16-.26.76-.43,1.15-1.68-1.25-4.01-1.25-5.49.41-.99,1.11-1.16,2.41-.94,3.72,0,.06,0,.12,0,.18,0,.09,0,.18.01.28,0,.01,0,.03,0,.04-.13,1.31.02,2.64.52,3.89,1.03,2.57,3.03,2.14,5.05,1.03.15-.08.43-.32.6-.32.02,0,.04,0,.05,0,.02.02.05.05.1.08.31.23.48.98.77,1.3.8.88,2,1.15,3.14.83,1.14-.32,2-1.12,2.69-2.04.38-.5.77-1.31,1.38-1.57.55-.24,1.39.06,1.48.77.12,1.02,1.21,2,2.25,1.29.52-.35,1.57-1.19,2.28-1.08.86.14.9,1.82,1.03,2.48.41,1.99.65,4.13,1.31,6.06.95,2.74,4.15,3.9,5.95,1.16.86-1.3.98-2.88,1.17-4.38.1-.75.69-5.64,2.37-5.05.34.12.89,1.16,1.26,1.41.58.39,1.23.54,1.92.45,1.55-.21,2.46-1.47,3.13-2.76.31-.59.49-1.38,1.21-1.24.52.1,1.18.88,1.61,1.16,1.24.82,2.67,1.09,4.02.36.07-.04.14-.08.21-.12.02.44.05.89.09,1.33,0,.22,0,.43.02.65,0,.74.04,1.48.15,2.23-.02.57.02,1.13.18,1.67.78,2.62,3.76,2,4.05-.49.21-1.83.27-3.69.31-5.52.04-1.67.22-3.5-.09-5.15Z"/>
      <g>
        <polygon class="cls-11" points="311.01 191.68 292.04 223.25 278.08 216.6 298.6 182.45 311.01 191.68"/>
        <path class="cls-2" d="M278.7,215.57l-13.12-6.51s2.21-5.49,5.34-8.88,6.54-11.4,7.98-13.02,3.06-5.6,4.24-7.06,3.19-5.05,3.19-5.05l11.46,8.76"/>
        <polygon class="cls-11" points="341.86 227.39 338 233.82 296.38 208.75 300.25 202.32 341.86 227.39"/>
        <path class="cls-6" d="M566.37,102.73c-28.25-4.88-54.79-13.21-78.86-24.75-19.27-9.24-37.02-20.55-52.74-33.61-26.83-22.29-38.32-41.69-38.8-42.5l3.19-1.87c.11.2,11.72,19.76,38.11,41.64,15.49,12.85,32.97,23.97,51.95,33.06,23.73,11.37,49.9,19.57,77.77,24.38l-.63,3.64Z"/>
        <path class="cls-14" d="M521.34,80.62c-.39-.46-9.8-11.18-22.56-6.79-6.87,2.36-11.04,6.79-13.12,13.93-3.49,11.98-.26,24.75-4.55,36.62-3.23,8.94-8.28,20.59-16.36,26.23-.56-.72-1.16-1.41-1.8-2.08-6.53-6.82-14.82-12.14-22.56-17.73-.87-.63-1.72-1.27-2.56-1.93-1.61-1.26-3.17-2.57-4.69-3.91,5.63-9.69,8.47-21.24,9.2-29.45.59-6.63,2.53-13.34,5.32-18.42,3.07-5.59,6.93-8.9,11.46-9.82,4.58-.93,7.54-5.41,6.61-9.99-.93-4.59-5.4-7.55-9.98-6.62-19.85,4.04-28.71,25.87-30.27,43.34-.57,6.41-2.41,13.08-5,18.66-.95-.96-1.91-1.93-2.87-2.89-1.5-1.5-3.03-3.06-4.6-4.66,1.68-1.84,2.7-4.29,2.7-6.98,0-5.72-4.63-10.36-10.35-10.36-2.99,0-5.69,1.27-7.58,3.31-3.53-2.7-7.23-5.02-11.11-6.66-15.32-6.44-34.62.61-43.2,9.81-8.58,9.2-17.77,21.78-7.66,47.23,4.94,12.45,16.62,27.89,29.34,41.8-.2.37-4.16,7.55-12.13,15.25-10.66,10.31-23.16,16.7-37.14,18.99-4.19.69-7.04,4.65-6.35,8.85.62,3.78,3.88,6.46,7.58,6.46.41,0,.83-.03,1.25-.1,33.09-5.42,51.44-28.36,57.82-38,9.77,9.61,19.2,17.58,25.8,21.91,7.07,4.64,13.27,7.67,19.42,8.35,2.49,2.74,7.03,6.44,15.19,10.05,15.93,7.05,22.06-.31,31.55,0,9.5.31,12.87-5.52,7.66-11.96-4.33-5.36-17.16-2.45-22.98-3.99-2.28-.6-4.85-2.2-7.13-3.91,1.99-1.72,4.05-3.68,6.21-5.91,9.14-9.43,15.11-19.96,17.57-29.98,2.64-.12,5.87-.5,8.77-1.51,6.27-2.18,10.76-8.59,13.49-10.09,2.72-1.5,3.81,2.86,9.26,1.5,5.45-1.36,4.08-7.09,1.5-9.54-2.59-2.45-5.58-10.22-17.02-5.45-4.15,1.73-8.51,2-12.38,1.68,6.09-4.98,10.06-13.02,13.28-20.03,3.43-7.48,6.05-15.45,6.38-23.73.28-7.2-.26-14.75,1.77-21.75,1.23-4.22,3.26-6.4,7.26-7.78,6.8-2.34,12.35,3.83,12.56,4.07,1.66,1.94,4.58,2.15,6.51.49,1.93-1.66,2.15-4.58.49-6.52Z"/>
        <path class="cls-9" d="M333.19,123.2c-.56.31-1.13.62-1.69.92.37,5.03,1.7,10.77,4.32,17.36,1.41,3.54,3.36,7.32,5.72,11.24,2.36-.19,4.83-.57,5.95-1.16,4.12-.91,10.54-4.54,14.11-7.68,3.33-2.93,4.05-7.5.43-9.91-.53-.36-.55-1.06-.02-1.44,7.62-5.46,5.24-13.26,1.65-18.2-2.15-2.96-5.48-3.82-9.68-2.41-3.54,1.19-6.95,3.47-10.21,5.3-3.52,1.99-7.03,4-10.57,5.97Z"/>
        <line class="cls-1" x1="267.85" y1="206.6" x2="277.45" y2="212.45"/>
        <line class="cls-1" x1="271.04" y1="202.12" x2="280.64" y2="207.97"/>
        <line class="cls-1" x1="273.81" y1="197.12" x2="283.41" y2="202.98"/>
        <line class="cls-1" x1="276.72" y1="192.57" x2="286.32" y2="198.42"/>
        <line class="cls-1" x1="279.86" y1="187.65" x2="289.46" y2="193.5"/>
        <line class="cls-1" x1="283.16" y1="183.02" x2="292.76" y2="188.88"/>
        <line class="cls-1" x1="285.91" y1="178.18" x2="295.51" y2="184.03"/>
        <line class="cls-1" x1="302.86" y1="205.24" x2="299.96" y2="210.08"/>
        <circle cx="349.66" cy="127.86" r="1.92"/>
        <path d="M340.29,136.64c-.03-.25-.06-.5-.08-.75-.04-.34-.11-.62-.36-.87-.21-.21-.56-.37-.87-.36-.32.01-.65.12-.87.36-.21.23-.4.55-.36.87.03.25.06.5.08.75.04.34.11.62.36.87.21.21.56.37.87.36.32-.01.65-.12.87-.36.21-.23.4-.55.36-.87Z"/>
        <path class="cls-1" d="M338.59,143.54c2.7-.35,8.65-1.73,12.99-7.28"/>
        <path class="cls-1" d="M399.72,98.86c0-2.82,2.29-5.11,5.11-5.11,1.76,0,3.32.89,4.23,2.25"/>
        <path class="cls-1" d="M311.01,222.26s2.05.8,4.4,0"/>
        <path class="cls-1" d="M311.01,227.06s2.05.8,4.4,0"/>
        <path class="cls-1" d="M312.78,232.27s2.19.25,4.25-1.13"/>
        <path class="cls-1" d="M457.15,54.44s1.79-1.43,4.26-1.33"/>
        <path class="cls-1" d="M458.93,58.09s1.79-1.43,4.26-1.33"/>
        <path class="cls-1" d="M460.04,62.4s1.79-1.43,4.26-1.33"/>
        <path class="cls-1" d="M411.25,106.1s-1.43,2.15-4.9,2.35"/>
        <path class="cls-4" d="M289.66,176.73c-.57-1.17-1.7-3.03-3.11-3.34-.58-.13-1.23.07-1.67.46-.55.49-.59,1.53-.81,1.76-.14.15-.68.2-.89.3-.3.16-.55.38-.77.63-.38.45-.57.98-.68,1.55-.11.54,0,1.34-.28,1.83-.34.59-1.26.69-1.85.95-1.13.51-2.02,1.4-2.04,2.72,0,.4.08.77.21,1.13-.38.38-.68.84-.89,1.36-.49,1.21-.12,2.66-.99,3.48-.87-.49-1.9-.51-2.58.57-.3.47-.33,1-.21,1.56-.07.01-.15.02-.22.04-1.01.25-1.59,1.12-1.73,2.07-.85.34-1.61.88-2.19,1.66-.44.59-.75,1.27-.9,2-.02.1-.03.6-.02,1.11-.2-.09-.38-.16-.5-.18-.79-.13-1.61.04-2.19.61-.91.89-.82,2.06-.24,3,.05.35.11.68.23,1.02.01.04.03.07.05.11.01.04.02.08.03.12,0,0,0,.01,0,.02,0,.16,0,.31-.01.47-.03.16-.06.31-.09.47-.55.34-1.02.91-1.2,1.53-.12.42-.08.76.02,1.09-.06.03-.12.06-.16.08-.41.21-.77.54-1.01.94-.63,1.02-.49,2.23-.04,3.28.31.73.77,1.35.98,2.12.18.66.11,1.33.21,2,.16,1.03.79,1.92,1.91,1.99,1.02.06,1.92-.65,2.24-1.61.42-1.28-.38-2.48-.41-3.76-.03-1.18.34-2.39,1.03-3.35.85-1.18,2.2-1.65,3.25-2.6.86-.78,1.5-1.84,1.47-3.03,0-.47-.5-1.33-.4-1.74.07-.27.49-.32.82-.43,2.06-.68,3.18-1.84,3.18-4.11,0-.08,0-.15,0-.23.51-.14.98-.36,1.4-.7.38-.31.67-.69.89-1.13.24-.15.44-.37.57-.69.08-.18.16-.36.26-.53.15-.13.3-.26.43-.39.48,0,.96-.02,1.38-.22.77-.38,1.37-1.08,1.55-1.92.21-.97-.13-1.89-.78-2.48.22-.53.28-1.13.19-1.69-.08-.45-.27-.86-.45-1.28-.17-.31-.31-.64-.41-.98.1.17.26.27.49.28.95.28,1.69.86,2.75.6.96-.23,1.74-.99,1.87-1.98.1-.78-.19-1.45-.79-1.95-.36-.29-.74-.39-1.14-.6-.49-.26-.69-.36.2-.4.66-.03,1.32-.56,1.4-1.22.08.04.21.04.37,0,.19,0,.39,0,.58-.04.46-.07.8-.2,1.21-.42.69-.38.82-1.24.5-1.9Z"/>
        <path class="cls-4" d="M268.13,220.95c-.07-.32-.28-.62-.68-.82l-.42-.21c-.72-.36-1.43-.14-1.89.5-.04.06-.08.12-.12.18-.18.18-.33.39-.44.63-.27.56-.45,1.39-.46,2.23-.03.5.02,1.01.18,1.49.17.59.46,1.09.91,1.39.98.78,2.38.7,3.2-.25,1.12-1.29.84-3.72-.27-5.12Z"/>
      </g>
      <path class="cls-3" d="M167.02,216.26c-.68.26-1.13.77-1.53,1.35-.09.14-.41.82-.57.85-.32.06-.69-.87-.83-1.08-.69-1.08-1.59-2.13-2.86-2.51-1.63-.48-2.57.37-4,.92-1.53.59-2.69-.33-3.81-1.27-1.59-1.34-2.44-1.93-4.52-1.3-1.02.31-1.46-.65-2.32-.96-1.38-.5-3.13-.39-4.2.7-1.2,1.22-2.08,3.02-2.45,4.67-.74,3.34,1.71,6.58,4.93,4.06.9-.7,1.01-.39,1.3.69.25.93.37,1.86.87,2.72.8,1.37,2.37,2.11,3.89,1.46.73-.31,1.28-.89,1.68-1.57.22-.37.91-2.81,1.31-2.82.23,0,.67,1.19.9,1.49.43.56.98.98,1.69,1.11,1.51.29,2.52-.76,3.41-1.8.18-.22.44-.46.59-.7.1.74.19,1.52.54,2.19.65,1.27,2.88,2.62,4.04,1.06.13.24.41.54.54.7.43.55.96,1.05,1.67,1.24,1.86.49,3.25-1.14,3.74-2.75.71-2.32.15-10.02-3.99-8.46Z"/>
      <path class="cls-1" d="M33.45,270.98c-1.21-.51-2.05-1.71-2.05-3.1,0-1.86,1.5-3.36,3.36-3.36,1.28,0,2.39.71,2.95,1.76"/>
      <path class="cls-1" d="M50.51,261.05c-1.05-.45-1.79-1.49-1.79-2.7,0-1.62,1.31-2.93,2.93-2.93,1.11,0,2.08.62,2.58,1.53"/>
      <polyline class="cls-1" points="103.12 258.73 113.8 263.03 115.56 252.77"/>
      <path class="cls-1" d="M113.8,263.03l4.01,9.04c.83,1.88.7,4.09-.49,5.76s-3.54,2.95-7.98,1.07"/>
      <path class="cls-1" d="M118.35,273.94s6.03,3.25,7.9-2.51"/>
      <path class="cls-1" d="M102.02,304.48s21.63-8.77,27.86-16.21"/>
      <path d="M60.8,274.95s-.04,0-.06,0c-.21-.05-.43-.07-.65-.07-.52,0-1,.15-1.38.5-.45.41-.57,1.09-.4,1.65.17.57.65,1.03,1.21,1.19.18.05.36.07.54.07.85.09,1.79-.33,2.04-1.18.28-.94-.36-1.94-1.3-2.15Z"/>
      <path class="cls-1" d="M20.64,342.76s-3.51,12.45-3.52,20.82"/>
      <path class="cls-1" d="M60.58,411.93s5.69.6,12.19-.29"/>
      <path class="cls-1" d="M157.89,716.14s5.35-2.51,6.57,2.88c1.21,5.39-5.73,14.98-15.2,14.65-9.47-.33,0-9.05,0-9.05"/>
      <path class="cls-1" d="M126.8,720.44s-1.09,4.73,0,6.84"/>
      <path class="cls-1" d="M129.66,712.28s6.68,1.76,9.62-3.09"/>
    </g>
  </g>
</svg>