<?xml version="1.0" encoding="UTF-8"?>
<svg id="Layer_2" data-name="Layer 2" xmlns="http://www.w3.org/2000/svg" viewBox="0 0 715.5 440">
  <defs>
    <style>
      .cls-1 {
        fill: #ff8a80;
      }

      .cls-2 {
        fill: #8ccead;
      }

      .cls-3 {
        fill: #52af85;
      }

      .cls-4 {
        fill: #fdd835;
      }

      .cls-5 {
        fill: #c2907f;
      }

      .cls-6 {
        fill: #bbdefb;
      }

      .cls-7 {
        fill: #fff;
      }

      .cls-8 {
        fill: #282828;
      }

      .cls-9 {
        fill: #f93;
      }

      .cls-10 {
        fill: none;
        stroke: #000;
        stroke-linecap: round;
        stroke-miterlimit: 10;
        stroke-width: 2.5px;
      }

      .cls-11 {
        fill: #ff8039;
      }
    </style>
  </defs>
  <g id="Layer_1-2" data-name="Layer 1">
    <path class="cls-11" d="M378.43,241.28c-8.74,2.12-16.9,6.08-23.34,11.8-6.53,5.8-10.7,13.63-11.74,22.31-3.37,28.19,6.26,50.61,6.26,57.84s-7.47,24.1-20.48,34.94c-13.01,10.84-30.23,13.3-26.99,24.34,2.41,8.19,11.08,5.3,11.08,5.3,0,0-3.13,9.64,7.71,8.68,10.84-.96,40-23.62,40-23.62,0,0,4.58,46.27,10.6,53.5,6.02,7.23,16.63,3.86,15.42-11.81,0,0,24.58,4.34,61.2-8.19,0,0,.48,16.63,9.88,16.39,9.4-.24,13.25-5.3,9.64-30.36-2.87-19.93-4.93-39.96-8.19-59.84-4.04-24.67-9.52-50.01-18.89-73.36-10.08-25.09-36.99-34.01-62.16-27.91Z"/>
    <circle class="cls-11" cx="343.31" cy="301.52" r="11.2"/>
    <circle class="cls-11" cx="442.42" cy="276.74" r="11.2"/>
    <path class="cls-7" d="M415.21,271.9c-.86-3.38-3.23-6.72-6.45-8.21-4.47-2.07-12.79,1.02-17.21,2.15-4.6,1.17-6.87,1.71-10.96,2.64-4.1.91-6.38,1.39-11.04,2.3-4.48.87-13.32,1.64-16.48,5.42-2.27,2.73-2.98,6.76-2.32,10.18,1.14,5.86,6.13,11.44,11.62,10.63-.09.53-.13,1.08-.1,1.64.21,4.01,2.48,7.87,8.03,8.92,6.25,1.17,12.67.55,18.84-.98,6.23-1.26,12.31-3.45,17.45-7.18,4.57-3.32,4.97-7.79,3.45-11.5-.21-.52-.49-1-.8-1.44,5.31-1.62,7.43-8.8,5.96-14.58Z"/>
    <path class="cls-4" d="M502.49,304.07l-19.08-3.61c-3.65-.69-6.84-2.89-8.78-6.06l-11.65-19c1.08,13.98-12.15,16.43-12.15,16.43,0,0,9.74,14.42.82,23.33l19.72-5.4c3.74-1.02,7.67-1.08,11.43-.17l23.05,5.58-3.37-11.09Z"/>
    <path class="cls-4" d="M581.04,349.13l.62,19.51c.14,4.37-1.62,8.59-4.84,11.55l-13.98,12.92c7.28-.88,12.93,1.12,15.81,8.04,6.83-5.13,14.02-6.57,21.65-3.22l-5.92-15.42c-1.9-4.95-2.91-10.19-2.98-15.49l-.26-19.94-10.12,2.05Z"/>
    <path class="cls-8" d="M588.87,222.62s23.61-8.43,40.72,3.37c17.11,11.81,53.73,37.11,74.69,45.55,20.96,8.43,7.23,20.05,1.2,20.75-6.02.7-16.63-.02-20.24-5.08,0,0-1.2,15.9-11.81,14.22-10.6-1.69-11.08-14.7-11.08-14.7,0,0,.24,10.84-8.92,11.09-9.16.24-8.67-17.59-8.67-17.59,0,0-1.69,14.46-10.84,13.74s-14.7-7.71-12.77-18.56c0,0-9.16,17.59-19.28,0-10.12-17.59-13.01-52.77-13.01-52.77Z"/>
    <path class="cls-8" d="M554.9,217.8s-10.12-11.81-24.34-12.53c-14.22-.72-33.97,4.34-49.15,0-15.18-4.34-40.96-22.17-51.32-15.18s-4.5,24.82,12.33,27.71c0,0-12.33,5.06-6.06,15.42,6.26,10.36,25.3-2.17,25.3-2.17,0,0-12.53,8.43-4.1,17.83,8.43,9.4,23.61-12.77,23.61-12.77,0,0-10.12,17.59,4.1,18.56,14.22.96,18.55-14.22,18.55-14.22,0,0-10.84,17.83,11.57,16.15,22.41-1.69,39.52-38.8,39.52-38.8Z"/>
    <path class="cls-7" d="M564.54,164.3s0-14.7,15.18-16.63c15.18-1.93,22.17,11.57,20,21.69s-11.81,23.37-7.23,55.67c4.58,32.29,7.47,78.8,28.67,88.2,0,0-1.45,42.41-45.06,40.73-43.61-1.69-70.24-21.45-75.66-55.91-4.05-25.72,23.14-59.53,48.91-86.75,12.73-13.45,14.94-25.37,15.18-46.99Z"/>
    <path class="cls-4" d="M537.67,178.03c-14.37-5.87-21.2-19.08-23.89-23.13s-12.28-4.9-12.28-4.9c5.72-12.32,29.28-4.73,37.35,0,5.48,3.21,14.22,7.66,19.27,10.19,2.14,1.07,4.5,1.57,6.89,1.58,2.2,0,5.22.65,7.49,3.59,4.04,5.23,5.84,3.83,8.75,6.58s2.86,11.48-7.07,10.13c-9.93-1.35-13.8,5.23-36.51-4.05Z"/>
    <path class="cls-11" d="M454.66,387.43c-3.63,0-6.16-.45-6.43-.51-1.97-.37-3.27-2.27-2.9-4.24.37-1.97,2.27-3.26,4.23-2.9.19.04,14.43,2.51,22.35-5.84,6.08-6.41,7.25-17.71,3.48-33.6-3.83-16.12-7.61-34.68-6.67-50.18,1.07-17.53,8.25-28.63,21.36-32.99,1.9-.63,3.96.4,4.59,2.3.63,1.9-.4,3.96-2.3,4.59-22.51,7.48-18.07,40.27-9.91,74.6,4.38,18.46,2.6,32.03-5.32,40.32-6.76,7.09-16.24,8.44-22.49,8.44Z"/>
    <g>
      <path class="cls-5" d="M11.74,358.11s-21.69-27.47-3.13-50.12c18.55-22.65,60.96-45.06,75.42-48.68,14.46-3.61,22.89,5.54,28.67,13.74,5.78,8.19,17.03,23.28,6.02,37.83-7.56,10-14.46,15.42-14.46,15.42,0,0,7.71,10.12,21.69,10.84,13.97.72,16.38,5.54,12.53,11.57-3.86,6.02-12.29,6.02-12.29,6.02,0,0,10.12,18.31,16.63,22.65s15.66,6.27,16.38,10.36-5.06,11.81-17.35,11.81-13.25-3.61-13.25-3.61c0,0-14.7,17.11-28.43,20.72,0,0-4.1,4.1-1.69,9.16s5.54,6.02,2.17,11.33c-3.37,5.3-17.81,2.65-20.47-3.37s-1.94-10.36-7-17.59c-5.06-7.23-32.05-17.35-61.44-58.08Z"/>
      <path class="cls-5" d="M8.25,311.24s-11.86-3.92-7.14-13.86c4.85-10.24,16.3-6.99,18.83,2.17l-11.69,11.69Z"/>
      <path class="cls-5" d="M17.71,298.57s-10.34-6.68-3.27-14.26c7.04-7.54,15.73-3.16,15.97,5.81l-12.7,8.44Z"/>
      <path class="cls-10" d="M10.04,305.94c-2.53,0-4.57-2.05-4.57-4.57s2.05-4.57,4.57-4.57c.63,0,1.23.13,1.78.36"/>
      <path class="cls-10" d="M13.67,291.68s5.46,2.41,6.26,7.87"/>
      <polyline class="cls-10" points="82.9 278.5 95.11 279.47 94.31 267.58"/>
      <path class="cls-10" d="M95.11,279.47l10.07,11.32c2.24,2.51,3.07,6.01,2.07,9.23s-3.31,6.85-8.29,6.76"/>
      <path class="cls-10" d="M107.03,293.82s6.4,3.48,8.16-2.14"/>
      <path class="cls-10" d="M102.5,327.02s-2.41,2.09-5.46,3.86"/>
      <path class="cls-10" d="M124.51,354.49s-3.05.8-9.32,0"/>
      <path class="cls-10" d="M92.86,416.34s2.55.09,5.62,0"/>
      <path d="M38.05,306.59c-.42-.44-1.07-.64-1.66-.62-.61.02-1.23.23-1.68.65-.53.5-.78,1.25-.59,1.96,0,.03.02.06.03.1.04.2.1.39.19.53.24.37.56.62.98.75.56.18,1.15.24,1.72.09.56-.15,1.07-.58,1.33-1.09.4-.8.3-1.71-.33-2.37Z"/>
    </g>
    <circle cx="365.94" cy="286.06" r="2.47"/>
    <circle cx="397.14" cy="277.86" r="2.47"/>
    <path d="M382.6,288.06l-.36-.72c-.18-.35-.61-.65-.98-.75-.39-.11-.91-.06-1.26.16-.35.22-.66.56-.75.98-.1.44-.04.85.16,1.26.12.24.24.48.36.72.18.35.61.65.98.75.39.11.91.06,1.26-.16.35-.22.66-.56.75-.98.1-.44.04-.85-.16-1.26Z"/>
    <path d="M387.63,285.68c-.28-.28-.75-.5-1.16-.48-.42.02-.86.16-1.16.48-.29.32-.48.71-.48,1.16v.72c0,.42.18.86.48,1.16.28.28.75.5,1.16.48.42-.02.86-.16,1.16-.48.29-.32.48-.71.48-1.16v-.72c0-.42-.18-.86-.48-1.16Z"/>
    <path class="cls-10" d="M371.06,296s15.54,5.54,30.48-7.47"/>
    <path class="cls-10" d="M340.74,305.46c-1.77-.51-3.06-2.13-3.06-4.06,0-2.33,1.89-4.23,4.22-4.23.49,0,.96.08,1.4.24"/>
    <path class="cls-10" d="M439.89,272.63c.77-.48,1.69-.76,2.66-.76,2.78,0,5.03,2.25,5.03,5.03,0,.35-.04.69-.1,1.01"/>
    <path class="cls-10" d="M368.41,333.95s-4.58,36.15-53.41,61.37"/>
    <path class="cls-10" d="M361.9,381.18s21.36-14.78,30.36-38.56"/>
    <g>
      <g>
        <path d="M312.15,395.83c-.28-.86-1.12-1.36-2.01-1.14-1.08.27-2.1.87-2.82,1.71-.56.65-.68,1.69,0,2.31.61.56,1.71.69,2.31,0,.12-.13.24-.26.37-.38.02-.02.03-.02.04-.04.07-.05.14-.1.21-.14.08-.05.15-.09.23-.13.01,0,.07-.03.11-.05.04-.02.09-.03.11-.04.1-.03.21-.06.32-.09.83-.2,1.41-1.19,1.14-2.01Z"/>
        <path d="M307,394.47c.86-.21,1.37-1.18,1.14-2.01-.24-.87-1.15-1.35-2.01-1.14-1.54.38-2.86,1.39-3.66,2.75-.45.76-.17,1.79.59,2.24.76.45,1.79.18,2.24-.59.07-.11.13-.22.21-.33,0,0,0,0,0,0,0,0,.02-.01.03-.03.09-.1.18-.19.27-.28.02-.02.15-.12.21-.17.05-.03.13-.09.15-.09.11-.07.23-.13.34-.19-.15.08-.07.02.04-.02.15-.05.3-.09.45-.13Z"/>
      </g>
      <path d="M303.56,390.61s.02-.06.03-.08c.01-.02.02-.04.04-.07.05-.08.1-.17.15-.25.02-.04.04-.06.05-.08.01-.01.03-.03.05-.05.08-.09.17-.18.26-.26.03-.02.12-.1.15-.12.07-.05.15-.1.22-.14.08-.04.16-.08.24-.12.04,0,.19-.06.25-.08.82-.24,1.42-1.16,1.14-2.01-.27-.83-1.13-1.4-2.01-1.14-1.78.51-3.09,1.82-3.71,3.55-.29.8.33,1.82,1.14,2.01.92.21,1.7-.28,2.01-1.14Z"/>
    </g>
    <g>
      <polygon points="315.38 402.9 315.38 402.9 315.39 402.89 315.38 402.89 315.38 402.9"/>
      <path d="M315.84,400.76c-.22-.35-.56-.66-.98-.75-.4-.09-.92-.1-1.26.16-.45.34-.81.67-1.11,1.15-.22.36-.39.77-.46,1.19-.07.45-.07.85.16,1.26.2.34.59.66.98.75.42.1.89.07,1.26-.16.33-.22.69-.57.75-.98.01-.08.03-.17.05-.25.04-.07.09-.15.12-.21.08-.08.22-.19.02-.03,0,0,0,.01-.01.02,0,0,0-.01,0-.01-.02.01-.05.04-.07.06,0,0,0,0,0,0,.03-.02.05-.04.08-.06,0,0,0-.02,0-.02,0,0,0,.01,0,.02.29-.24.52-.48.62-.87.11-.39.06-.91-.16-1.26Z"/>
    </g>
    <path d="M320.76,404.21c-.1-.38-.4-.79-.75-.98-.38-.2-.84-.3-1.26-.16-.42.14-.73.38-.98.75-.32.49-.49,1.12-.48,1.7.01.43.18.85.48,1.16.28.28.75.5,1.16.48.42-.02.86-.16,1.16-.48.29-.31.49-.72.48-1.15.01-.02.02-.04.03-.06.23-.34.27-.87.16-1.26Z"/>
    <path class="cls-10" d="M514.3,153.34s18.19,7.47,24.34,12.89c6.14,5.42,23.73,15.66,38.67,10.72"/>
    <circle cx="586.32" cy="166.45" r="1.9"/>
    <line class="cls-10" x1="579.23" y1="386.61" x2="575.38" y2="391.55"/>
    <line class="cls-10" x1="586.58" y1="386.61" x2="586.58" y2="393.71"/>
    <line class="cls-10" x1="458.16" y1="292.28" x2="466.95" y2="294.55"/>
    <line class="cls-10" x1="458.88" y1="304.91" x2="465.15" y2="303.59"/>
    <path class="cls-2" d="M166.62,268.95c.57,1.27,1.25,2.45,2.02,3.54.77,1.1,1.36,2.3,1.76,3.62.94,3.15.61,6.09-.99,8.81-.96,1.54-2.44,2.57-4.43,3.08-.52.14-1.04.27-1.55.37-.51.11-1.04.27-1.58.49-1.58.51-3.08.18-4.49-1.01-.91-.84-1.67-1.77-2.29-2.79-.62-1.03-1.24-2.05-1.86-3.08-.86-1.48-2.16-2.81-3.91-3.98-.73-.47-1.5-.77-2.29-.88-.8-.11-1.58-.12-2.34-.03-1.44.21-2.8.62-4.07,1.24-1.27.61-2.38,1.44-3.33,2.49-.84.91-1.6,1.87-2.29,2.88-.69,1.02-1.24,2.1-1.63,3.26-.8,1.98-1.5,3.98-2.11,6-.6,2.02-1.09,4.19-1.46,6.5-.09,1.3-.3,2.7-.64,4.19-.34,1.5-.5,3.07-.5,4.72.06.51.09,1.03.06,1.56-.02.53.03,1.1.16,1.7.24,1.28.5,2.59.77,3.92.27,1.33.61,2.65,1.01,3.96.45,1.49,1.16,2.68,2.14,3.57.98.89,2.1,1.67,3.37,2.33.76.31,1.52.42,2.28.33.76-.1,1.5-.32,2.23-.67,1.2-.67,2.36-1.34,3.48-2.03,1.12-.68,2.19-1.5,3.2-2.46.88-.73,1.79-1.25,2.71-1.56.93-.31,1.93-.28,3,.1,1.62.56,2.88,1.68,3.79,3.34l2.87,5.5c.86,1.49.79,2.87-.2,4.16-1.09,1.35-2.13,2.67-3.12,3.95s-2.39,2.33-4.19,3.13c-.81.33-1.61.75-2.41,1.25-.8.5-1.62,1-2.45,1.49-2.01,1-4.04,1.61-6.1,1.82-2.06.21-4.17.19-6.34-.07-.24-.05-.45-.11-.64-.19-.19-.08-.4-.18-.62-.31-.92-.35-1.84-.69-2.76-1.04-.92-.35-1.85-.65-2.78-.92-1.16-.39-2.2-.95-3.13-1.66-.93-.72-1.8-1.53-2.61-2.43-1.56-1.7-2.98-3.44-4.28-5.22-1.3-1.78-2.44-3.71-3.43-5.8-.46-1-.84-2.02-1.13-3.06-.29-1.04-.53-2.12-.72-3.23-.2-1.11-.38-2.25-.56-3.44-.18-1.19-.24-2.35-.18-3.49-.02-.74-.06-1.49-.11-2.24-.06-.75-.09-1.54-.09-2.36-.04-1.08-.01-2.14.07-3.19.08-1.05.15-2.15.21-3.29.12-1.46.26-2.89.41-4.3.15-1.41.29-2.84.41-4.3.17-1.28.53-2.69,1.08-4.23.28-.6.45-1.27.52-2,.06-.73.24-1.43.54-2.12.33-.84.68-1.68,1.05-2.51.37-.83.8-1.65,1.29-2.46.69-1.02,1.37-2.03,2.02-3.06.65-1.02,1.29-2.05,1.9-3.08.11-.14.22-.28.33-.43.11-.14.18-.29.21-.45.38-1.08.9-2.05,1.56-2.9.66-.86,1.35-1.67,2.08-2.43.85-.98,1.75-1.88,2.69-2.68.94-.8,1.99-1.46,3.16-1.97.73-.35,1.42-.75,2.09-1.19.66-.44,1.35-.8,2.06-1.08,1.28-.65,2.62-1.09,4.02-1.31,1.4-.22,2.84-.14,4.33.23,1.09.3,2.34.46,3.73.49,1-.05,1.96-.03,2.89.07.93.1,1.85.32,2.77.67.38.16.73.25,1.06.27.32.02.68.07,1.08.15,1.11.22,2.09.66,2.95,1.32.41.41.77.69,1.07.83,1.3.5,2.45,1.24,3.45,2.22,1,.98,2.03,1.9,3.1,2.77.35.32.55.52.62.62Z"/>
    <path class="cls-1" d="M309.7,393.9c-.1.98-.57,1.71-1.42,2.18l-9.93,4.57c-1.07.41-2.05.38-2.96-.08-.91-.46-1.57-1.23-1.97-2.3-.65-1.49-1.17-3.04-1.57-4.67-.4-1.63-.85-3.22-1.36-4.79-.67-2.03-1.24-4.12-1.69-6.27-.46-2.15-.95-4.27-1.48-6.38-.13-.39-.26-.8-.41-1.23-.15-.43-.27-.89-.36-1.39-.29-.85-.55-1.73-.77-2.62-.22-.89-.3-1.86-.24-2.92-.02-.36-.05-.71-.1-1.05-.05-.34-.09-.69-.1-1.05l-1.9-9.62c-.14-.75-.36-1.51-.65-2.27-.29-.76-.56-1.54-.81-2.32-.81-2.6-1.58-5.2-2.33-7.78-.75-2.59-1.3-5.26-1.64-8.03-.31-2.05-.72-4.06-1.22-6.04-.51-1.98-1.04-3.97-1.6-5.97-.27-1.14-.32-2.18-.14-3.11s.7-1.77,1.57-2.54c2.08-1.9,4.24-3.62,6.49-5.15,2.24-1.53,4.66-2.79,7.26-3.77,2.34-.94,4.6-.62,6.76.94.79.58,1.63,1.35,2.54,2.32,1.18,1.28,2.37,2.59,3.57,3.9,1.2,1.32,2.35,2.64,3.46,3.96.57.7,1.1,1.44,1.59,2.23.49.79,1.02,1.54,1.59,2.23,1,1.29,2.01,2.6,3.02,3.93,1.02,1.33,2.1,2.6,3.24,3.81.75.69,1.4,1.44,1.94,2.24.54.81,1.14,1.63,1.79,2.47.46.67.95,1.3,1.47,1.89.51.59,1.04,1.2,1.57,1.83l3.21,3.76c.57.7,1.11,1.37,1.61,2.01.5.65,1.09,1.24,1.76,1.79,1.21,1.18,2.36,2.45,3.45,3.83,1.09,1.38,2.17,2.69,3.24,3.95,1.03,1.18,2.02,2.34,2.98,3.47.95,1.13,1.89,2.27,2.81,3.42.69.91,1.37,1.87,2.03,2.89.66,1.02,1.34,1.98,2.03,2.89l.24.42c.95,1.87.66,3.42-.87,4.65-.91.69-1.77,1.38-2.59,2.07-.82.69-1.69,1.2-2.61,1.53-1.4.97-2.84,1.63-4.3,1.98-.96.44-1.91.47-2.87.08-.81-.29-1.58-.6-2.32-.92-.74-.33-1.37-.8-1.91-1.43-.57-.7-1.13-1.31-1.66-1.85-.53-.54-1.08-1.15-1.66-1.85-.99-1.11-2.14-1.35-3.45-.71-2.44,1.09-4.87,2.3-7.26,3.64-.56.32-1.14.69-1.74,1.11-.6.42-1.17.88-1.73,1.38-1.92,1.53-2.72,3.41-2.4,5.64.11.86.22,1.68.33,2.45.11.77.25,1.57.43,2.39.14.75.19,1.46.15,2.13-.04.67-.08,1.39-.12,2.15ZM300.6,355.99c.51.92.94,1.48,1.3,1.7.35.22.98.31,1.88.27,1.47-.17,2.73-.83,3.76-1.96,1.17-1.39,1.41-2.77.73-4.15-.21-.71-.51-1.33-.9-1.86-.39-.52-.81-1.03-1.26-1.51-.8-.94-1.66-1.82-2.59-2.65-.92-.82-1.68-1.77-2.27-2.82-.24-.42-.54-.81-.92-1.15-.38-.34-.75-.69-1.13-1.03-.64-.66-1.2-.58-1.67.24-.57.97-.72,2.11-.44,3.44.39,1.36.78,2.73,1.19,4.12.41,1.39.77,2.78,1.08,4.18.17.64.38,1.22.62,1.73.24.51.44,1,.61,1.46Z"/>
    <path class="cls-3" d="M615.68,45.66c-.68,1.15-1.38,2.3-2.09,3.45-.72,1.15-1.49,2.25-2.32,3.31-.73.82-1.53,1.54-2.39,2.14-.87.61-1.82,1.19-2.84,1.73-1.8.97-3.64,1.84-5.54,2.63s-3.92,1.37-6.07,1.73c-2.39.42-4.69,1.13-6.89,2.14-1.44.67-2.66,1.55-3.66,2.63-1,1.08-1.58,2.51-1.75,4.27.03.49-.02.99-.14,1.51-.13.52-.26,1.01-.39,1.48-.25.87-.45,1.7-.6,2.5-.16.8-.2,1.64-.12,2.54-.02.24-.07.48-.13.72-.07.24-.1.44-.12.6-.24,1.68-.67,2.78-1.29,3.28-.62.51-1.9.79-3.85.85-1.06.06-2.11.04-3.16-.06s-2.15-.04-3.3.17c-1.16.21-2.24-.3-3.26-1.53-.29-.35-.56-.7-.81-1.05-.25-.35-.56-.7-.93-1.06-.3-.27-.57-.82-.81-1.66-.15-.99-.26-1.97-.33-2.95-.07-.98.03-1.98.29-3.01.56-2.46.92-4.94,1.08-7.44.16-2.5.32-5.04.49-7.62.02-.24.03-.5.01-.79-.01-.28,0-.55.01-.79.33-1.75.56-3.47.68-5.17.12-1.69.26-3.38.42-5.07.46-3.93.84-7.91,1.14-11.93.19-2.01.32-3.98.39-5.92.06-1.94.11-3.92.14-5.95.02-2.75.3-5.28.85-7.58.27-1.11.44-2.23.5-3.36.07-1.13.16-2.25.26-3.38-.05-.33-.06-.65-.03-.98l.1-1.08c.03-1.13.37-2.01,1.04-2.64.67-.62,1.46-1.1,2.39-1.41.67-.26,1.38-.43,2.12-.53.74-.09,1.48-.18,2.22-.27,1.8-.15,3.58-.14,5.35.03s3.57.34,5.42.52l4.34.42c1.28.12,2.56.31,3.84.55,1.27.24,2.53.63,3.78,1.15.79.24,1.58.44,2.38.59.79.16,1.58.39,2.36.71,1.64.64,3.19,1.42,4.64,2.33,1.45.91,2.72,2.11,3.79,3.59,1.15,1.57,1.98,3.07,2.49,4.5.12.42.25.77.38,1.07.13.3.26.65.38,1.07.58,1.52,1.04,2.71,1.36,3.6.32.88.57,1.72.73,2.5.17.79.27,1.67.29,2.64.03.98.05,2.24.06,3.78-.04,1.21-.11,2.44-.23,3.69s-.24,2.47-.35,3.68c-.05.56-.13,1.12-.22,1.68-.1.56-.17,1.16-.23,1.8-.18,1.85-.8,3.74-1.88,5.66ZM599.4,34.01c.58-1.81.85-3.63.83-5.46-.03-1.83-.11-3.68-.26-5.56,0-.89-.53-1.67-1.6-2.34-1.83-1.23-3.75-1.94-5.76-2.13l-1.21-.12c-.4-.04-.81-.04-1.22,0-1.71.08-2.8.87-3.27,2.36-.35,1.1-.66,2.23-.93,3.38-.27,1.15-.43,2.33-.46,3.54-.09.96-.17,1.93-.22,2.9-.05.97-.09,1.98-.11,3.03-.12,1.21,0,2.29.36,3.26.35.97.93,1.93,1.73,2.9,1.31,1.51,2.93,1.94,4.86,1.32,3.68-1.19,6.1-3.55,7.25-7.09Z"/>
    <path class="cls-6" d="M571.52,80.5c.96.81,2.05,1.2,3.27,1.14.62-.19,1.19-.43,1.72-.73.52-.3.97-.8,1.33-1.53.3-.62.63-1.22.98-1.77.35-.55.63-1.18.84-1.87l2.65-7.97c.1-.34.25-.7.43-1.06.18-.36.4-.73.67-1.1,1.27-2.11,2.93-3.34,5-3.71.95-.17,1.91-.32,2.87-.44.96-.13,1.89-.19,2.8-.19.66.05,1.25.03,1.77-.07l1.73-.3c1.11-.2,2.17-.26,3.16-.19.9,0,1.53.18,1.88.53.35.35.59.92.73,1.72.08.48.12.94.12,1.39,0,.45-.05.89-.14,1.31-.16,1.42-.49,2.81-.99,4.17-.5,1.36-1.04,2.7-1.63,4.04-.44,1.23-.92,2.37-1.42,3.45-.51,1.07-.99,2.18-1.44,3.33-.47,1.07-.91,2.15-1.33,3.25-.42,1.1-.87,2.18-1.33,3.25-.72,1.52-1.41,3.08-2.07,4.67-.66,1.59-1.31,3.18-1.93,4.77-.93,2.62-1.56,5.25-1.87,7.89-.32,2.64-.19,5.34.38,8.11.53,2.53,1.06,5,1.61,7.4.55,2.4.96,4.89,1.25,7.46l1.13,6.44c.15.88.3,1.92.43,3.12.13,1.21.32,2.49.55,3.84,0,.49-.04.93-.14,1.31-.1.39-.32.77-.66,1.16l-.86,1.38c-.17.44-.49.7-.97.78-.86.23-1.74.49-2.63.77-.89.28-1.8.38-2.71.29-.09-.07-.22-.08-.38-.06-.08.01-.15.07-.22.16-.83.39-1.72.61-2.65.65-.94.04-1.85.1-2.74.17-.48.08-.87-.05-1.18-.41l-1.28-1c-.45-.25-.79-.54-1.01-.87-.22-.33-.42-.73-.58-1.19-.24-1.35-.5-2.62-.79-3.8-.29-1.18-.51-2.2-.67-3.08l-1.13-6.44c-.61-2.52-1.06-5-1.37-7.44-.31-2.45-.65-4.95-1.01-7.51-.41-2.8-1.21-5.38-2.41-7.75-1.2-2.37-2.68-4.63-4.45-6.78-1.13-1.28-2.27-2.55-3.44-3.82-1.17-1.27-2.35-2.5-3.54-3.68-.81-.84-1.59-1.71-2.36-2.6-.77-.89-1.56-1.75-2.36-2.6-.82-.92-1.65-1.8-2.49-2.64-.84-.83-1.68-1.75-2.51-2.75-1.01-1.05-1.97-2.13-2.91-3.24-.93-1.11-1.72-2.3-2.35-3.58-.23-.37-.42-.76-.58-1.19-.16-.42-.28-.87-.36-1.35-.14-.79-.11-1.41.1-1.86.21-.45.73-.83,1.58-1.14.91-.41,1.92-.71,3.04-.9l1.73-.3c.52-.09,1.08-.27,1.69-.54.85-.31,1.74-.57,2.69-.78.95-.21,1.9-.4,2.85-.56,2.07-.36,4.06.23,5.97,1.78.37.26.71.53,1,.81.29.28.55.56.76.85l5.22,6.58c.43.58.9,1.07,1.43,1.47.52.4,1.03.84,1.52,1.33Z"/>
    <path class="cls-4" d="M132.36,213.8s-14.05,1.86-15.91,21.26c-1.86,19.4,3.11,27.6,25.48,24.12,12.67-1.97,17.41-13.57,15.88-25.23-.85-6.47-3.32-11.69-8.46-15.78-4.94-3.92-10.76-5.38-16.99-4.37Z"/>
    <path class="cls-9" d="M135.97,260.3c-.76-1.12-1.88-2.15-3.33-1.98-.52.06-.79.37-1.18.67-.53.43-1.35,2.34-1.44,2.93-.1.68-.27,1.34-.43,2-.15.61-.32,1.28-.32,1.91,0,.71.48,1.16,1.14,1.31,1.13.26,2.32-.28,3.02-1.17.19-.24.34-.49.47-.75.23.36.52.69.88.89.63.34,1.37.2,1.91-.23.52-.42.76-1.04.78-1.7.05-1.38-.75-2.79-1.5-3.89Z"/>
    <path class="cls-9" d="M150.51,260.92c-.47-1.15-1.08-2.3-2.04-3.12-.94-.81-2.17-1.29-3.41-1.11-1.5.22-2.16,1.45-1.86,2.87.19.9.48,1.76.61,2.67.14.98.26,2.06,1.08,2.73.76.62,1.91.78,2.63,0,.31-.33.45-.7.51-1.09.46.33,1,.5,1.55.34.59-.17,1.04-.71,1.2-1.28.19-.67,0-1.38-.26-2Z"/>
    <path class="cls-4" d="M132.36,213.8s-4.35-.69-7.09-1.86-7.21,1.12-3.48,6.59c0,0-3.18-.22-2.73,2.61.45,2.83,4.54,5.35,4.54,5.35l8.76-12.68Z"/>
    <path class="cls-4" d="M121.92,226.48s-5.59-3.23-8.45-5.72c-2.86-2.49-6.46-.12-3.73,4.72,2.73,4.85,5.1,4.35,5.1,4.35,0,0-3.23-.37-2.36,4.48.87,4.85,9.45,3.98,9.45,3.98v-11.81Z"/>
    <path class="cls-4" d="M153.12,225.12s2.11-1.79,3.11-6.06,6.09-1.37,5.72,3.03c-.37,4.4-2.11,5.02-2.11,5.02,0,0,2.24-1.62,3.61,0s-.99,7.83-8.2,8.95c-7.21,1.12-2.11-10.94-2.11-10.94Z"/>
    <path class="cls-4" d="M117.2,247s-3.85-4.6-7.71-3.73c-3.85.87-.87,5.84,2.36,6.71,0,0-1.99.25-1.24,2.86s4.97,3.23,9.32,0l-2.73-5.84Z"/>
    <path class="cls-9" d="M146.8,224.18c-2.21.09-4.37,1.39-4.3,3.91,0,.06,0,.12,0,.18.16,2.67,2.26,3.83,3.64,4.31.82.28,1.72.22,2.48-.19,1.12-.6,2.6-1.86,2.75-4.35.16-2.67-2.23-3.95-4.57-3.86Z"/>
    <circle cx="137.03" cy="227.09" r="1.37"/>
    <path class="cls-10" d="M118.31,236.87s4.91.93,7.15-3.67"/>
  </g>
</svg>