<?xml version="1.0" encoding="UTF-8"?>
<svg id="Layer_2" data-name="Layer 2" xmlns="http://www.w3.org/2000/svg" viewBox="0 0 367 250">
  <defs>
    <style>
      .cls-1 {
        fill: none;
        stroke: #000;
        stroke-linecap: round;
        stroke-linejoin: round;
        stroke-width: 2.5px;
      }

      .cls-2 {
        fill: #2b2b2b;
      }

      .cls-3 {
        fill: #ff8a80;
      }

      .cls-4 {
        fill: #8ccead;
      }

      .cls-5 {
        fill: #00ac5c;
      }

      .cls-6 {
        fill: #fdd835;
      }

      .cls-7 {
        fill: #ce8cc5;
      }

      .cls-8 {
        fill: #f05757;
      }

      .cls-9 {
        fill: #9bdce0;
      }

      .cls-10 {
        fill: #cb946b;
      }

      .cls-11 {
        fill: #fff7f5;
      }

      .cls-12 {
        fill: #4695bc;
      }

      .cls-13 {
        fill: #ffdacf;
      }
    </style>
  </defs>
  <g id="Layer_1-2" data-name="Layer 1">
    <g>
      <polygon class="cls-9" points="322.73 18.97 321.08 23.96 321.08 24.06 316.94 23.96 319.05 18.86 322.73 18.97"/>
      <polygon class="cls-9" points="245.29 16.64 242.37 22.07 242.37 22.17 238.31 22.07 241.62 16.53 245.29 16.64"/>
      <polygon class="cls-9" points="191.42 15.02 188.64 20.88 185.04 20.79 187.82 14.91 191.42 15.02"/>
      <polygon class="cls-9" points="126.42 13.07 123.66 19.22 123.66 19.32 119.62 19.22 123.07 12.96 126.42 13.07"/>
      <polygon class="cls-9" points="49.3 10.75 46.67 17.38 46.67 17.47 42.78 17.38 45.85 10.65 45.85 10.64 49.3 10.75"/>
      <polygon class="cls-9" points="126.42 13.07 123.07 12.96 49.3 10.75 45.85 10.64 0 9.26 0 0 365.35 11.74 366.48 20.29 322.73 18.97 319.05 18.86 245.29 16.64 241.62 16.53 191.42 15.02 187.82 14.91 126.42 13.07"/>
      <path class="cls-13" d="M289.62,117.77c-3.99.92-8.51,1.35-13.62,1.14h0c3.96-10.33,3.49-19.68,3.59-20.1.12-.45-10.58.15-10.58.15,0,0-.16-5-.39-12.29,16.7-11.3,15.03-42.92,14.38-50.31h0s10.32,1.74,19.81,8.31c2.67,1.85,5.26,4.08,7.56,6.75,0,0,1.48-1.7,3.39-.94,1.91.75,2.35,3.14.39,6.35.4.72.78,1.46,1.13,2.22.26.57.08,1.25-.42,1.63l-16.48,12.48s9.58,4.64,19.67,1.22c.84-.29,1.71.34,1.68,1.23-.33,7.61-3.38,35.98-30.11,42.16ZM297.85,75.33c0-4.48-3.63-8.1-8.11-8.1s-8.1,3.63-8.1,8.1,3.63,8.1,8.1,8.1,8.11-3.62,8.11-8.1Z"/>
      <path class="cls-13" d="M307.11,7.11c.85,1.55.92,3.49.88,5.22-.08,2.69-.61,5.36-1.31,7.95,0,0-.45,17.66-3.86,24.38-9.49-6.56-19.81-8.31-19.81-8.31h0c-.08-1-.15-1.56-.15-1.56-.41-.16-.81-.29-1.21-.41h0c1.49-2.14,2.28-16.29,2.28-16.29-1.3-4.72-.92-9.2-.92-9.2,0,0,.33-4.5,3.34-4.8,3-.3,4.05,1.57,4.05,1.57.91-1.85,3.54-2.01,5.16-1.06.3.18,1.25.9,1.14,1.37.33-1.4,1.83-2.12,3.17-1.95.81.09,1.5.56,1.88,1.27.13.25.62,1.32.42,1.61,1.29-1.92,3.83-1.85,4.95.21Z"/>
      <path class="cls-3" d="M289.74,67.23c4.48,0,8.11,3.63,8.11,8.1s-3.63,8.1-8.11,8.1-8.1-3.62-8.1-8.1,3.63-8.1,8.1-8.1Z"/>
      <path class="cls-6" d="M289.62,117.77l4.37,94.88c-5.18.05-11-.26-17.27-1.06-12.3-1.55-26.3-4.94-40.5-10.88h0c-1.07-.45-2.14-.91-3.2-1.39-7.72-3.44-15.46-7.66-22.98-12.76-29.49-20.02-34.89-36.68-34.89-36.68,5.36-.66,17.97-7.23,18.16-7.48.75,8.23,1.2,13.78,1.2,13.78,5.97-1.35,45.09-29.39,45.09-29.39,1.41,2.21,3.09,4.14,5.11,5.54,11.15,7.76,24.99.68,30.16-10.69.42-.92.8-1.83,1.14-2.73h0c5.12.21,9.63-.22,13.62-1.14Z"/>
      <path class="cls-5" d="M284.37,243.95c1.42,1.13.71,3.4-1.09,3.53l-14.54,1.08c-1.28.09-2.52-.47-3.3-1.49-.64-.85-1.42-1.94-2.3-3.22l15.58-4.39,5.64,4.49Z"/>
      <path class="cls-2" d="M282.99,36.36c.64,7.38,2.32,39.01-14.38,50.31-.49-15.5-1.31-41.38-1.61-51.87,0,0,6.89-2.84,14.63-.42h0c.4.13.8.26,1.21.42,0,0,.07.56.15,1.56Z"/>
      <path class="cls-6" d="M269,98.96s10.69-.6,10.58-.15c-.1.41.37,9.76-3.59,20.1-.34.9-.72,1.82-1.14,2.73-5.18,11.36-19.02,18.45-30.16,10.69-2.01-1.4-3.7-3.33-5.11-5.54-6.36-9.99-7.04-25.84-7.04-25.84l10.43-.71,26.04-1.27Z"/>
      <path class="cls-11" d="M277.97,228.96l.76,10.5-15.58,4.39c-1.79-2.6-4-6-6.38-9.74l21.21-5.16Z"/>
      <path class="cls-7" d="M276.72,211.58l1.26,17.37-21.21,5.16c-1.24-1.95-2.52-3.98-3.82-6.05-8.07-12.9-16.52-27.01-16.73-27.37,14.2,5.95,28.2,9.33,40.5,10.88Z"/>
      <path class="cls-7" d="M252.95,228.07c-4.54,2.27-11.05-.87-11.05-.87,0,0-23.49-10.14-23.49-10.85-.89-5.87.35-15.02.35-15.02l14.25-2.01c1.07.48,2.14.94,3.2,1.38h0c.21.36,8.66,14.48,16.73,27.37Z"/>
      <path class="cls-2" d="M193.29,142.39c-1.85-20.29-5.5-56.87-8.71-66.87l59.29-32.29c.75,4.95-.9,57-.9,57l-10.43.71s.68,15.85,7.04,25.84c0,0-39.12,28.04-45.09,29.39,0,0-.45-5.55-1.2-13.78Z"/>
      <path class="cls-11" d="M209.08,202.7l9.68-1.37s-1.23,9.15-.35,15.02c0-.26-3.47,1.04-7.95,2.81-3.5-7.15-1.38-16.46-1.38-16.46Z"/>
      <path class="cls-5" d="M209.08,202.7s-2.12,9.31,1.38,16.46c-3.75,1.48-8.21,3.31-11.93,4.84-2.42,1-4.7-1.68-3.33-3.91l8.56-13.91c1.16-1.89,3.11-3.17,5.31-3.48Z"/>
      <path class="cls-10" d="M124.1,113.85c-4.74.82-9.97.92-15.67.16,1.5-4.08,2.66-8.37,3.38-12.57,0,0,1.18-43.82,1.72-60.46l11.89-10.66s.6.1,1.64.37c3.07.78,9.99,3.02,16.5,8.41,3.72,3.08,7.3,7.19,9.95,12.65l-.03-.07s2.47-1.06,4.33.51.86,4.92-1.62,6.73l-.03-.07c.18.68.37,1.38.52,2.1,4.95,22.33-6.53,48.42-32.58,52.92ZM139.56,55.95c0-1.54-1.24-2.78-2.78-2.78s-2.79,1.24-2.79,2.78,1.25,2.79,2.79,2.79,2.78-1.25,2.78-2.79ZM134.62,69.79c0-4.48-3.63-8.1-8.11-8.1s-8.1,3.63-8.1,8.1,3.62,8.1,8.1,8.1,8.11-3.62,8.11-8.1Z"/>
      <path class="cls-10" d="M146.69,3.41c2.35,1.59,2.25,9.83-.75,13.2,0,0,.22,16.69-2.4,22.48-6.51-5.39-13.43-7.63-16.5-8.41,0,0-.01-11.15-.54-17.82,0,0-.52-6.82,0-9.07s2.85-3.08,5.1-1.73c0,0,.92-2.39,3.83-2.02,1.38.17,2.14.95,2.8,2.07.88-.9,1.71-1.42,3.06-1.1,2.13.49,1.97,1.93,1.95,2.08,0,0,0,.01,0,.01h0c.12-.16,1.74-.85,3.45.3Z"/>
      <path class="cls-3" d="M126.51,61.69c4.48,0,8.11,3.63,8.11,8.1s-3.63,8.1-8.11,8.1-8.1-3.62-8.1-8.1,3.62-8.1,8.1-8.1Z"/>
      <path class="cls-2" d="M125.72,30.04l-.31.28-11.89,10.66c.1-3.07.18-5.21.23-5.99.12-1.96.56-5.13.9-8.29,0,0,7.35,1.12,11.07,3.34Z"/>
      <path class="cls-4" d="M120.55,245.49c1.66.75,1.4,3.19-.39,3.53-9.07,1.72-23.79.66-23.79.66l12.65-6.64c5.81.49,9.36,1.48,11.53,2.45Z"/>
      <path class="cls-8" d="M108.42,114c5.7.77,10.93.66,15.67-.16-.4,3.36-14.7,80.28-14.7,80.28-.5,0-1.02,0-1.55-.04-12.99-.8-34.93-13.09-51.72-23.77-13.22-8.39-23.26-15.79-23.26-15.79l43.33-47.1c-.21,1.88-.36,3.71-.41,5.4-.31,10.79,1.2,21.3,11.7,23.4,7.99,1.59,16.16-9.23,20.93-22.23Z"/>
      <path class="cls-8" d="M82.24,86.58l29.56,14.85c-.72,4.2-1.88,8.49-3.38,12.57-4.77,13-12.94,23.82-20.93,22.23-10.5-2.1-12.01-12.61-11.7-23.4.05-1.7.2-3.53.41-5.4.25-2.22.6-4.52.99-6.74,1.37-7.87,3.25-14.86,3.25-14.86l1.8.75Z"/>
      <path class="cls-12" d="M107.85,194.08l1.18,21-1.28.05-19.54.85h0s-2.55.12-2.55.12l-5.11-24.89-14.65,12.93-13.83-20.72,4.06-13.11c16.8,10.68,38.74,22.97,51.72,23.77Z"/>
      <path class="cls-11" d="M108.7,236.02l.33,7.02-12.65,6.64s-1.36-5.59-2.96-12.21l15.29-1.45Z"/>
      <path class="cls-10" d="M107.74,215.14l.96,20.88-15.29,1.45h0c-2.3-9.49-5.12-21.09-5.2-21.47h0s19.54-.86,19.54-.86Z"/>
      <path class="cls-2" d="M80.38,28.68l8.45.16c-1.36,13.51-6.59,57.74-6.59,57.74l-1.8-.75s-1.88,6.99-3.25,14.86c-14.51-4.79-28.41-28.05-23.46-47.4,4.95-19.35,26.66-24.61,26.66-24.61Z"/>
      <path class="cls-10" d="M52.06,183.42l13.83,20.72-1.18,1.04c-3.3,2.92-8.37,2.58-11.24-.77l-13.22-15.33,8.39-9.82,3.42,4.16Z"/>
      <polygon class="cls-11" points="48.64 179.27 40.25 189.09 32.52 180.11 40.82 169.77 48.64 179.27"/>
      <path class="cls-4" d="M36.53,164.85l4.28,4.92-8.3,10.34-11.74,4.25c-1.61.59-3.01-1.3-1.96-2.66l12.69-16.68c1.24-1.63,3.67-1.72,5.02-.16Z"/>
      <polygon class="cls-9" points="185.04 20.79 188.64 20.88 238.31 22.07 242.37 22.17 316.94 23.96 321.08 24.06 367 25.16 367 34.24 0 27.11 0 16.35 42.78 17.38 46.67 17.47 119.62 19.22 123.66 19.32 185.04 20.79"/>
      <circle cx="295.95" cy="56.42" r="2.86"/>
      <circle cx="136.7" cy="55.95" r="2.86"/>
      <path class="cls-1" d="M145.41,66.18s6.13,5.4,12.29,2.1"/>
      <path class="cls-1" d="M127.04,30.68s11.19,3.06,16.5,8.41"/>
      <path class="cls-1" d="M127.04,13.43s.54,2.15,2.27,2.4c2.21.32,2.96-2.51,2.96-2.51,0,0,.17,2.85,2.14,3.06,2.78.29,2.89-2.98,2.89-2.98,0,0,.41,3.35,3.13,3.35,2.57,0,2.71-3.17,2.71-3.17,0,0-.4,2.84,1.85,3.18"/>
      <path class="cls-1" d="M76.01,109.27s-3.27,22.55,8.83,26.18c12.1,3.63,20.89-11.28,23.59-20.93"/>
      <path class="cls-1" d="M239.94,127.32s6.41,9.3,17.95,8.01c9.8-1.09,16.44-10.88,17.6-15.14"/>
      <line class="cls-1" x1="236.58" y1="201.32" x2="252.95" y2="228.07"/>
      <path class="cls-1" d="M283.93,36.54s8.63,1.51,18.27,7.71"/>
      <path class="cls-1" d="M284.3,16.91s.22,3.3,2.81,3.64,3.43-3.45,3.43-3.45c0,0,.21,3.66,3.14,3.71,2.67.05,3.36-3.3,3.36-3.3,0,0,.02,3.07,2.88,3.3,2.3.19,2.81-2.96,2.81-2.96,0,0,.82,3.41,3.33,2.44"/>
      <path class="cls-13" d="M254.83,24.38c.05-1.48.37-5.85,2.63-5.67,2.7.22,2.7,6.75,2.7,6.75,0,0,1.13-5.78,3.9-5.1s2.7,3.38,2.85,10.5c.01.75.05,2.12.1,3.94.3,10.48,1.12,36.36,1.61,51.87.23,7.3.39,12.29.39,12.29l-26.04,1.27s1.65-52.05.9-57c0,0-2.25-4.27-3.23-7.28-.98-3-.9-4.57,0-4.87.9-.31,2.42-.53,3.43,2.77,0,0,.05-4.95.01-7.5-.05-2.55.01-5.4,1.81-5.55,1.8-.15,2.15,1.4,2.72,5.11,0,0-.39-7.96,3.06-7.59,2.86.32,3.14,4.59,3.15,6.05Z"/>
      <path class="cls-10" d="M96.05,21.49c0-.45.75-8.7,3.9-8.55,3.15.15,3.3,8.55,3.3,8.55,0,0,.6-8.4,3.75-8.25,3.15.15,3,8.7,3,8.7,0,0,1.05-5.84,3.75-5.25,1.64.37,1.4,5.17.9,10.01-.33,3.16-.77,6.33-.9,8.29-.05.77-.13,2.92-.23,5.99-.54,16.63-1.72,60.46-1.72,60.46l-29.56-14.85s5.23-44.23,6.59-57.74c.16-1.66.27-2.86.31-3.45.3-5.4-.15-12.6,2.7-13.05,2.73-.43,4.08,8.72,4.21,9.15Z"/>
      <line class="cls-1" x1="113.53" y1="40.98" x2="111.8" y2="100.83"/>
      <line class="cls-1" x1="269" y1="86.39" x2="269" y2="97.91"/>
    </g>
  </g>
</svg>